<svg role="img" aria-hidden="true" xmlns="http://www.w3.org/2000/svg" viewBox="0 0 500 500" focusable="false"><path fill="#5b2942" d="M80 0h340a80 80 0 0180 80v420H80a80 80 0 01-80-80V80A80 80 0 0180 0z"/><rect width="285" height="76" x="147" y="359" fill="#ff4e47" rx="37.93"/><path fill="#cf0801" d="M361.67 359H184.93a37.83 37.83 0 00-27.6 12h176.74a37.83 37.83 0 0027.6-12z"/><path fill="#cf0801" d="M409.21 361.76a37.66 37.66 0 00-14.14-2.76H278.35a74.93 74.93 0 000 76h116.72a37.66 37.66 0 0014.14-2.76 75 75 0 000-70.48z"/><circle cx="358" cy="397" r="75" fill="#ed261f"/><path fill="#fac9c7" d="M358 442.39a50.2 50.2 0 10-50.2-50.19 50.17 50.17 0 0050.2 50.19z"/><path fill="#fac9c7" d="M368.89 452c9.41 0 17.07-4.25 17.07-13.66v-25.19a17.09 17.09 0 00-17.07-17.07h-21.78A17.09 17.09 0 00330 413.15v25.19c0 9.41 7.66 13.66 17.07 13.66z"/><path fill="#ed261f" d="M381.25 414.29a16.16 16.16 0 10-16.16-16.16 16.15 16.15 0 0016.16 16.16zm-46.95 0a16.16 16.16 0 10-16.16-16.16 16.14 16.14 0 0016.16 16.16zm31.04 9.41l-6.15-15.7c-.28-.75-1.63-.75-1.82 0L350 423.7z"/><rect width="285" height="76" x="48" y="212" fill="#fec228" rx="37.93"/><path fill="#d67c00" d="M295.07 212H118.33a37.83 37.83 0 0027.6 12h176.74a37.83 37.83 0 00-27.6-12z"/><path fill="#d67c00" d="M201.65 212H85.93a37.55 37.55 0 00-15.42 3.31 75 75 0 000 69.38A37.55 37.55 0 0085.93 288h115.72a74.93 74.93 0 000-76z"/><circle cx="122" cy="250" r="75" fill="#f49a00"/><path fill="#fce6bf" d="M134.08 264.83h-24.17l-3.73-69.29h31.64zm-27.61 25.64q0-6.68 4-10.37t11.5-3.7q7.47 0 11.31 3.7t3.85 10.37q0 6.58-4 10.29t-11.17 3.7q-7.26 0-11.36-3.7t-4.13-10.29z"/><rect width="285" height="76" x="147" y="65" fill="#9fda4f" rx="37.93"/><path fill="#599409" d="M361.67 65H184.93a37.83 37.83 0 00-27.6 12h176.74a37.83 37.83 0 0027.6-12z"/><path fill="#599409" d="M411.46 72.37A37.67 37.67 0 00389.07 65H278.35a74.93 74.93 0 000 76h110.72a37.67 37.67 0 0022.39-7.37 75 75 0 000-61.26z"/><circle cx="358" cy="103" r="75" fill="#77b227"/><path fill="#ddecc9" d="M372.72 52.28l-20.58 57.18-9.89-31H327.8l16.33 42a15.33 15.33 0 010 11.19c-1.47 3.76-4.08 8.26-11.31 9.59l-1 .18v12.31h1.25a22.59 22.59 0 0016-6.83c4.38-4.41 8.13-11.22 11.78-21.43l27.35-73.19z"/></svg>